<?xml version="1.0" encoding="UTF-8"?>
<svg width="60" height="60" viewBox="0 0 60 60" xmlns="http://www.w3.org/2000/svg">
  <g fill="#0040FF">
    <path d="M15,10 L45,10 C47.7614,10 50,12.2386 50,15 L50,45 C50,47.7614 47.7614,50 45,50 L15,50 C12.2386,50 10,47.7614 10,45 L10,15 C10,12.2386 12.2386,10 15,10 Z M15,15 L15,45 L45,45 L45,15 L15,15 Z"/>
    <rect x="20" y="15" width="20" height="30"/>
    <path d="M25,5 L35,5 L35,10 L25,10 L25,5 Z"/>
    <path d="M25,50 L35,50 L35,55 L25,55 L25,50 Z"/>
    <path d="M30,20 L35,25 L25,25 L30,20 Z"/>
    <path d="M30,35 L35,30 L25,30 L30,35 Z"/>
    <rect x="28" y="25" width="4" height="10"/>
  </g>
</svg>
