<?xml version="1.0" encoding="UTF-8"?>
<svg width="60" height="60" viewBox="0 0 60 60" xmlns="http://www.w3.org/2000/svg">
  <g fill="#0040FF">
    <path d="M10,10 L50,10 C52.7614,10 55,12.2386 55,15 L55,45 C55,47.7614 52.7614,50 50,50 L10,50 C7.23858,50 5,47.7614 5,45 L5,15 C5,12.2386 7.23858,10 10,10 Z"/>
    <path d="M15,15 L15,45 L45,45 L45,15 L15,15 Z" fill="white"/>
    <path d="M20,20 C20,20 25,25 30,20 C35,15 40,20 40,20" stroke="#0040FF" stroke-width="2" fill="none"/>
    <path d="M20,25 C20,25 25,30 30,25 C35,20 40,25 40,25" stroke="#0040FF" stroke-width="2" fill="none"/>
    <path d="M20,30 C20,30 25,35 30,30 C35,25 40,30 40,30" stroke="#0040FF" stroke-width="2" fill="none"/>
    <path d="M20,35 C20,35 25,40 30,35 C35,30 40,35 40,35" stroke="#0040FF" stroke-width="2" fill="none"/>
    <path d="M20,40 C20,40 25,45 30,40 C35,35 40,40 40,40" stroke="#0040FF" stroke-width="2" fill="none"/>
    <circle cx="25" cy="25" r="3" fill="#0040FF"/>
    <circle cx="35" cy="35" r="3" fill="#0040FF"/>
  </g>
</svg>
