<?xml version="1.0" encoding="UTF-8"?>
<svg width="60" height="60" viewBox="0 0 60 60" xmlns="http://www.w3.org/2000/svg">
  <g fill="#0040FF">
    <path d="M10,15 L50,15 C52.7614,15 55,17.2386 55,20 L55,40 C55,42.7614 52.7614,45 50,45 L10,45 C7.23858,45 5,42.7614 5,40 L5,20 C5,17.2386 7.23858,15 10,15 Z"/>
    <path d="M15,20 L15,40 L45,40 L45,20 L15,20 Z" fill="white"/>
    <path d="M20,25 C20,25 25,20 30,25 C35,30 40,25 40,25" stroke="#0040FF" stroke-width="2" fill="none"/>
    <path d="M20,30 C20,30 25,25 30,30 C35,35 40,30 40,30" stroke="#0040FF" stroke-width="2" fill="none"/>
    <path d="M20,35 C20,35 25,30 30,35 C35,40 40,35 40,35" stroke="#0040FF" stroke-width="2" fill="none"/>
    <path d="M15,45 L15,50 L20,50 L20,45" stroke="#0040FF" stroke-width="2" fill="none"/>
    <path d="M40,45 L40,50 L45,50 L45,45" stroke="#0040FF" stroke-width="2" fill="none"/>
    <circle cx="17.5" cy="47.5" r="2.5" fill="white"/>
    <circle cx="42.5" cy="47.5" r="2.5" fill="white"/>
  </g>
</svg>
