<?xml version="1.0" encoding="UTF-8"?>
<svg id="Layer_1" data-name="Layer 1" xmlns="http://www.w3.org/2000/svg" viewBox="0 0 2206.66 1153.07">
  <defs>
    <style>
      .cls-1 {
        fill-rule: evenodd;
      }

      .cls-1, .cls-2 {
        fill: #0054a6;
      }
    </style>
  </defs>
  <path class="cls-2" d="M0,1153.07l47.5-130.69h48.98l19.21,37.37,46.24-37.37h48.98l-47.5,130.69h-48.98c6.75-18.86,15.9-44.12,27.45-75.8-.7.84-1.48,1.66-2.32,2.43-.85.78-1.76,1.59-2.74,2.43-.99.84-1.76,1.48-2.32,1.9l-39.27,32.09-14.57-30.41c-.14-.42-.56-1.4-1.27-2.96-.7-1.54-1.27-2.99-1.69-4.33-.42-1.33-.64-2.71-.64-4.12l-28.08,78.75H0Z"/>
  <path class="cls-2" d="M187.69,1153.07l39.69-109.15c2.39-6.61,6.37-11.85,11.93-15.73,5.56-3.87,11.85-5.81,18.89-5.81h124.14l-47.5,130.69h-49.19l12.04-32.72h-48.98l-12.03,32.72h-48.98ZM272.35,1055.11l-11.82,32.72h48.98l11.82-32.72h-48.98Z"/>
  <path class="cls-2" d="M359.12,1153.07l47.5-130.69h123.72c5.63,0,10.06,2.32,13.3,6.97,3.24,4.65,3.87,9.65,1.9,14.99l-13.94,38.21c-2.39,6.62-6.37,11.86-11.92,15.73-5.56,3.87-11.79,5.81-18.69,5.81h-3.59l24.92,48.98h-48.98l-24.91-48.98h-22.59l-17.73,48.98h-48.98ZM442.51,1055.11l-7.6,20.69h52.57l7.6-20.69h-52.57Z"/>
  <polygon class="cls-2" points="527.6 1153.07 575.1 1022.6 624.08 1022.6 576.58 1153.07 527.6 1153.07 527.6 1153.07 527.6 1153.07"/>
  <polygon class="cls-2" points="600.86 1153.07 648.36 1022.39 697.55 1022.39 722.68 1087.84 746.53 1022.39 795.51 1022.39 748.01 1153.07 698.82 1153.07 673.69 1087.84 649.84 1153.07 600.86 1153.07 600.86 1153.07 600.86 1153.07"/>
  <polygon class="cls-2" points="955.12 1055.11 856.95 1055.11 851.04 1072 932.74 1072 921.98 1099.24 840.27 1099.24 833.3 1120.35 931.26 1120.35 919.44 1153.07 772.29 1153.07 819.79 1022.39 966.94 1022.39 955.12 1055.11 955.12 1055.11 955.12 1055.11"/>
  <polygon class="cls-2" points="1189.9 1055.11 1091.72 1055.11 1085.81 1072 1167.51 1072 1156.75 1099.24 1075.04 1099.24 1068.07 1120.35 1166.04 1120.35 1154.21 1153.07 1007.06 1153.07 1054.56 1022.39 1201.72 1022.39 1189.9 1055.11 1189.9 1055.11 1189.9 1055.11"/>
  <polygon class="cls-2" points="1274.98 1022.6 1239.29 1120.56 1316.99 1120.56 1305.16 1153.07 1178.49 1153.07 1225.99 1022.6 1274.98 1022.6 1274.98 1022.6 1274.98 1022.6"/>
  <polygon class="cls-2" points="1501.93 1055.11 1403.75 1055.11 1397.85 1072 1479.56 1072 1468.78 1099.24 1387.08 1099.24 1380.12 1120.35 1478.08 1120.35 1466.26 1153.07 1319.09 1153.07 1366.6 1022.39 1513.75 1022.39 1501.93 1055.11 1501.93 1055.11 1501.93 1055.11"/>
  <path class="cls-2" d="M1654.36,1055.11h-84.02l-23.86,65.24h84.02l-11.82,32.72h-109.79c-5.62,0-10.06-2.36-13.3-7.07-3.24-4.71-3.86-9.67-1.9-14.88l31.67-87.2c2.38-6.61,6.37-11.85,11.93-15.73,5.56-3.87,11.79-5.81,18.69-5.81h110.2l-11.82,32.73h0Z"/>
  <path class="cls-2" d="M1764.15,1055.11l-35.69,97.96h-48.97l35.67-97.96h-48.99l11.83-32.73c61.65,0,107.88.07,138.71.21l-11.82,32.73-40.75-.21h0Z"/>
  <path class="cls-2" d="M1789.27,1153.07l47.51-130.69h123.71c5.62,0,10.06,2.32,13.3,6.97,3.24,4.65,3.88,9.65,1.9,14.99l-13.94,38.21c-2.38,6.62-6.37,11.86-11.93,15.73-5.56,3.87-11.79,5.81-18.69,5.81h-3.58l24.91,48.98h-48.99l-24.91-48.98h-22.58l-17.74,48.98h-48.99ZM1872.67,1055.11l-7.6,20.69h52.57l7.6-20.69h-52.57Z"/>
  <polygon class="cls-2" points="1957.75 1153.07 2005.24 1022.6 2054.23 1022.6 2006.72 1153.07 1957.75 1153.07 1957.75 1153.07 1957.75 1153.07"/>
  <path class="cls-2" d="M2194.84,1055.11h-84.04l-23.85,65.24h84.02l-11.82,32.72h-109.78c-5.64,0-10.06-2.36-13.3-7.07-3.24-4.71-3.88-9.67-1.92-14.88l31.67-87.2c2.4-6.61,6.37-11.85,11.93-15.73,5.56-3.87,11.8-5.81,18.69-5.81h110.21l-11.82,32.73h0Z"/>
  <path class="cls-2" d="M421,0c-16.84,0-31.79,10.59-37.22,26.62L77.89,920.94c-6.25,17.93,7.33,36.68,26.08,36.68h139.91c19.83,0,37.49-12.77,44.01-31.52l229.01-669.11c3.8-11.41,14.4-18.74,26.35-18.74h142.08c19.01,0,32.6,18.74,26.35,36.95l-223.03,651.18c-5.16,15.21,6.25,31.24,22.27,31.24h178.75l239.88-700.62c3.8-11.41,14.4-18.74,26.35-18.74h142.08c19.01,0,32.6,18.74,26.35,36.95l-220.32,643.03c-6.52,19.29,7.88,39.39,28.25,39.39h169.24l113.56-331.97-50.53,21.19,126.87-343.38-72.53,48.36L1283.53.27H420.73l.27-.27h0Z"/>
  <path class="cls-2" d="M1571.22,238.25h346.37c27.44,0,46.45,26.89,37.5,52.7l-134.21,387.66c-8.42,24.45-31.52,40.75-57.32,40.75h-359.14l166.8-481.12h0ZM1791.54,957.61c19.56,0,40.75-6.79,63.84-20.92,22.81-13.86,45.09-32.6,66.83-55.69,21.72-23.36,41.56-49.98,60.03-79.87,18.2-29.88,33.15-61.67,44.55-94.81l157.04-454.49c11.94-34.5,19.28-66.83,21.72-97.53,2.44-30.43.83-57.05-4.89-79.87-5.7-22.82-15.21-40.75-28.53-54.06-13.58-13.31-29.88-20.1-49.7-20.1h-578.1l-139.36,198.04,102.68-42.11-204.02,372.18,69.56-12.5-265.15,441.73h683.77-.26Z"/>
  <polygon class="cls-1" points="2007.03 915.2 2007.03 890.17 1998.11 890.17 1998.11 885.08 2022 885.08 2022 890.17 2013.12 890.17 2013.12 915.2 2007.03 915.2 2007.03 915.2"/>
  <polygon class="cls-1" points="2025.86 915.2 2025.86 885.08 2035 885.08 2040.4 904.64 2045.74 885.08 2054.9 885.08 2054.9 915.2 2049.26 915.2 2049.25 893.94 2043.3 915.2 2037.43 915.2 2031.51 894.03 2031.51 915.2 2025.86 915.2 2025.86 915.2"/>
  <path class="cls-1" d="M2026.5,853.72c25.65,0,46.42,20.78,46.42,46.42s-20.77,46.42-46.42,46.42-46.42-20.78-46.42-46.42,20.79-46.42,46.42-46.42M2026.5,861.1c21.57,0,39.05,17.48,39.05,39.04s-17.49,39.04-39.05,39.04-39.04-17.48-39.04-39.04,17.47-39.04,39.04-39.04"/>
</svg>