<?xml version="1.0" encoding="UTF-8"?>
<svg width="60" height="60" viewBox="0 0 60 60" xmlns="http://www.w3.org/2000/svg">
  <g fill="#0040FF">
    <path d="M10,15 L50,15 C52.7614,15 55,17.2386 55,20 L55,45 C55,47.7614 52.7614,50 50,50 L10,50 C7.23858,50 5,47.7614 5,45 L5,20 C5,17.2386 7.23858,15 10,15 Z M10,20 L10,45 L50,45 L50,20 L10,20 Z"/>
    <rect x="15" y="25" width="10" height="5" rx="1"/>
    <rect x="15" y="35" width="10" height="5" rx="1"/>
    <rect x="30" y="25" width="10" height="5" rx="1"/>
    <rect x="30" y="35" width="10" height="5" rx="1"/>
    <path d="M25,5 L35,5 L35,15 L25,15 L25,5 Z M28,8 L28,12 L32,12 L32,8 L28,8 Z"/>
  </g>
</svg>
