<?xml version="1.0" encoding="UTF-8"?>
<svg width="60" height="60" viewBox="0 0 60 60" xmlns="http://www.w3.org/2000/svg">
  <g fill="#0040FF">
    <path d="M10,15 L50,15 C52.7614,15 55,17.2386 55,20 L55,40 C55,42.7614 52.7614,45 50,45 L10,45 C7.23858,45 5,42.7614 5,40 L5,20 C5,17.2386 7.23858,15 10,15 Z"/>
    <path d="M15,20 L15,40 L45,40 L45,20 L15,20 Z" fill="white"/>
    <path d="M20,25 L25,25 L25,35 L20,35 Z"/>
    <path d="M30,25 L35,25 L35,35 L30,35 Z"/>
    <path d="M40,25 L40,35 L45,35" stroke="#0040FF" stroke-width="2"/>
    <circle cx="42.5" cy="35" r="2.5" fill="white"/>
    <path d="M15,45 L15,50 L20,50 L20,45" stroke="#0040FF" stroke-width="2" fill="none"/>
    <path d="M40,45 L40,50 L45,50 L45,45" stroke="#0040FF" stroke-width="2" fill="none"/>
    <path d="M25,10 L35,10 L35,15 L25,15 Z"/>
    <path d="M27,5 L33,5 L33,10 L27,10 Z"/>
  </g>
</svg>
